<svg width="49" height="48" viewBox="0 0 49 48" fill="none" xmlns="http://www.w3.org/2000/svg">
<path d="M21.4639 19.3813C21.8195 19.382 22.1607 19.5253 22.4102 19.7788L23.1113 20.4917C23.6268 21.0154 23.6203 21.8579 23.0967 22.3735C22.6703 22.7933 22.0337 22.8658 21.5332 22.5962C21.4757 22.7647 21.5126 22.964 21.6406 23.0942L24.9434 26.4556L25.0098 26.5112C25.0802 26.559 25.1633 26.5843 25.251 26.5845C25.2871 26.5845 25.3225 26.5782 25.3564 26.5698C24.9109 26.0436 24.9391 25.2559 25.4385 24.7642C25.962 24.2484 26.8047 24.2543 27.3203 24.7778L28.2168 25.689C28.7277 26.2082 28.7257 27.0418 28.2129 27.5591L27.4482 28.3306C26.8632 28.9207 26.0828 29.2456 25.252 29.2456H25.2451C24.4115 29.2437 23.6291 28.9153 23.0449 28.3208L19.7422 24.9595C18.544 23.74 18.5484 21.7615 19.752 20.5474L20.5166 19.7759C20.7664 19.5239 21.1062 19.3815 21.4609 19.3813H21.4639Z" fill="#FAC800"/>
<path d="M21.4639 19.3813C21.8195 19.382 22.1607 19.5253 22.4102 19.7788L23.1113 20.4917C23.6268 21.0154 23.6203 21.8579 23.0967 22.3735C22.6703 22.7933 22.0337 22.8658 21.5332 22.5962C21.4757 22.7647 21.5126 22.964 21.6406 23.0942L24.9434 26.4556L25.0098 26.5112C25.0802 26.559 25.1633 26.5843 25.251 26.5845C25.2871 26.5845 25.3225 26.5782 25.3564 26.5698C24.9109 26.0436 24.9391 25.2559 25.4385 24.7642C25.962 24.2484 26.8047 24.2543 27.3203 24.7778L28.2168 25.689C28.7277 26.2082 28.7257 27.0418 28.2129 27.5591L27.4482 28.3306C26.8632 28.9207 26.0828 29.2456 25.252 29.2456H25.2451C24.4115 29.2437 23.6291 28.9153 23.0449 28.3208L19.7422 24.9595C18.544 23.74 18.5484 21.7615 19.752 20.5474L20.5166 19.7759C20.7664 19.5239 21.1062 19.3815 21.4609 19.3813H21.4639Z" fill="black" fill-opacity="0.2"/>
<path d="M21.4639 19.3813C21.8195 19.382 22.1607 19.5253 22.4102 19.7788L23.1113 20.4917C23.6268 21.0154 23.6203 21.8579 23.0967 22.3735C22.6703 22.7933 22.0337 22.8658 21.5332 22.5962C21.4757 22.7647 21.5126 22.964 21.6406 23.0942L24.9434 26.4556L25.0098 26.5112C25.0802 26.559 25.1633 26.5843 25.251 26.5845C25.2871 26.5845 25.3225 26.5782 25.3564 26.5698C24.9109 26.0436 24.9391 25.2559 25.4385 24.7642C25.962 24.2484 26.8047 24.2543 27.3203 24.7778L28.2168 25.689C28.7277 26.2082 28.7257 27.0418 28.2129 27.5591L27.4482 28.3306C26.8632 28.9207 26.0828 29.2456 25.252 29.2456H25.2451C24.4115 29.2437 23.6291 28.9153 23.0449 28.3208L19.7422 24.9595C18.544 23.74 18.5484 21.7615 19.752 20.5474L20.5166 19.7759C20.7664 19.5239 21.1062 19.3815 21.4609 19.3813H21.4639Z" stroke="#FAC800" stroke-width="0.387944"/>
<path d="M21.4639 19.3813C21.8195 19.382 22.1607 19.5253 22.4102 19.7788L23.1113 20.4917C23.6268 21.0154 23.6203 21.8579 23.0967 22.3735C22.6703 22.7933 22.0337 22.8658 21.5332 22.5962C21.4757 22.7647 21.5126 22.964 21.6406 23.0942L24.9434 26.4556L25.0098 26.5112C25.0802 26.559 25.1633 26.5843 25.251 26.5845C25.2871 26.5845 25.3225 26.5782 25.3564 26.5698C24.9109 26.0436 24.9391 25.2559 25.4385 24.7642C25.962 24.2484 26.8047 24.2543 27.3203 24.7778L28.2168 25.689C28.7277 26.2082 28.7257 27.0418 28.2129 27.5591L27.4482 28.3306C26.8632 28.9207 26.0828 29.2456 25.252 29.2456H25.2451C24.4115 29.2437 23.6291 28.9153 23.0449 28.3208L19.7422 24.9595C18.544 23.74 18.5484 21.7615 19.752 20.5474L20.5166 19.7759C20.7664 19.5239 21.1062 19.3815 21.4609 19.3813H21.4639Z" stroke="black" stroke-opacity="0.2" stroke-width="0.387944"/>
<path d="M30.9893 3.84277C34.5919 3.5636 38.1238 4.87145 40.6777 7.42969C43.2306 9.98718 44.5352 13.5239 44.2568 17.1318C44.2028 17.8296 43.62 18.3593 42.9316 18.3594C42.8973 18.3594 42.8627 18.3581 42.8281 18.3555C42.0954 18.299 41.5469 17.6595 41.6035 16.9268C41.822 14.0934 40.7977 11.3179 38.7939 9.31055C36.7906 7.30353 34.0205 6.27767 31.1943 6.49609C30.4625 6.55262 29.8224 6.00512 29.7656 5.27246C29.7089 4.53978 30.2565 3.89955 30.9893 3.84277Z" fill="#FAC800"/>
<path d="M30.9893 3.84277C34.5919 3.5636 38.1238 4.87145 40.6777 7.42969C43.2306 9.98718 44.5352 13.5239 44.2568 17.1318C44.2028 17.8296 43.62 18.3593 42.9316 18.3594C42.8973 18.3594 42.8627 18.3581 42.8281 18.3555C42.0954 18.299 41.5469 17.6595 41.6035 16.9268C41.822 14.0934 40.7977 11.3179 38.7939 9.31055C36.7906 7.30353 34.0205 6.27767 31.1943 6.49609C30.4625 6.55262 29.8224 6.00512 29.7656 5.27246C29.7089 4.53978 30.2565 3.89955 30.9893 3.84277Z" fill="black" fill-opacity="0.2"/>
<path d="M30.9893 3.84277C34.5919 3.5636 38.1238 4.87145 40.6777 7.42969C43.2306 9.98718 44.5352 13.5239 44.2568 17.1318C44.2028 17.8296 43.62 18.3593 42.9316 18.3594C42.8973 18.3594 42.8627 18.3581 42.8281 18.3555C42.0954 18.299 41.5469 17.6595 41.6035 16.9268C41.822 14.0934 40.7977 11.3179 38.7939 9.31055C36.7906 7.30353 34.0205 6.27767 31.1943 6.49609C30.4625 6.55262 29.8224 6.00512 29.7656 5.27246C29.7089 4.53978 30.2565 3.89955 30.9893 3.84277Z" stroke="#FAC800" stroke-width="0.387944"/>
<path d="M30.9893 3.84277C34.5919 3.5636 38.1238 4.87145 40.6777 7.42969C43.2306 9.98718 44.5352 13.5239 44.2568 17.1318C44.2028 17.8296 43.62 18.3593 42.9316 18.3594C42.8973 18.3594 42.8627 18.3581 42.8281 18.3555C42.0954 18.299 41.5469 17.6595 41.6035 16.9268C41.822 14.0934 40.7977 11.3179 38.7939 9.31055C36.7906 7.30353 34.0205 6.27767 31.1943 6.49609C30.4625 6.55262 29.8224 6.00512 29.7656 5.27246C29.7089 4.53978 30.2565 3.89955 30.9893 3.84277Z" stroke="black" stroke-opacity="0.2" stroke-width="0.387944"/>
<path d="M31.5459 8.23193C33.7838 8.11925 35.9771 8.96498 37.5615 10.5522C39.1449 12.1387 39.9884 14.3337 39.876 16.5747C39.8401 17.2859 39.2521 17.8384 38.5479 17.8384C38.5252 17.8384 38.5028 17.8376 38.4805 17.8364C37.7465 17.7996 37.181 17.1749 37.2178 16.4409C37.2927 14.9488 36.7312 13.4876 35.6777 12.4321C34.6245 11.3771 33.1658 10.8135 31.6787 10.8882L31.6797 10.8892C30.9436 10.9271 30.3202 10.361 30.2832 9.62744C30.2463 8.89342 30.8119 8.26893 31.5459 8.23193Z" fill="#FAC800"/>
<path d="M31.5459 8.23193C33.7838 8.11925 35.9771 8.96498 37.5615 10.5522C39.1449 12.1387 39.9884 14.3337 39.876 16.5747C39.8401 17.2859 39.2521 17.8384 38.5479 17.8384C38.5252 17.8384 38.5028 17.8376 38.4805 17.8364C37.7465 17.7996 37.181 17.1749 37.2178 16.4409C37.2927 14.9488 36.7312 13.4876 35.6777 12.4321C34.6245 11.3771 33.1658 10.8135 31.6787 10.8882L31.6797 10.8892C30.9436 10.9271 30.3202 10.361 30.2832 9.62744C30.2463 8.89342 30.8119 8.26893 31.5459 8.23193Z" fill="black" fill-opacity="0.2"/>
<path d="M31.5459 8.23193C33.7838 8.11925 35.9771 8.96498 37.5615 10.5522C39.1449 12.1387 39.9884 14.3337 39.876 16.5747C39.8401 17.2859 39.2521 17.8384 38.5479 17.8384C38.5252 17.8384 38.5028 17.8376 38.4805 17.8364C37.7465 17.7996 37.181 17.1749 37.2178 16.4409C37.2927 14.9488 36.7312 13.4876 35.6777 12.4321C34.6245 11.3771 33.1658 10.8135 31.6787 10.8882L31.6797 10.8892C30.9436 10.9271 30.3202 10.361 30.2832 9.62744C30.2463 8.89342 30.8119 8.26893 31.5459 8.23193Z" stroke="#FAC800" stroke-width="0.387944"/>
<path d="M31.5459 8.23193C33.7838 8.11925 35.9771 8.96498 37.5615 10.5522C39.1449 12.1387 39.9884 14.3337 39.876 16.5747C39.8401 17.2859 39.2521 17.8384 38.5479 17.8384C38.5252 17.8384 38.5028 17.8376 38.4805 17.8364C37.7465 17.7996 37.181 17.1749 37.2178 16.4409C37.2927 14.9488 36.7312 13.4876 35.6777 12.4321C34.6245 11.3771 33.1658 10.8135 31.6787 10.8882L31.6797 10.8892C30.9436 10.9271 30.3202 10.361 30.2832 9.62744C30.2463 8.89342 30.8119 8.26893 31.5459 8.23193Z" stroke="black" stroke-opacity="0.2" stroke-width="0.387944"/>
<path d="M32.1494 12.187C33.1374 12.2372 34.0671 12.6512 34.7666 13.3521C35.466 14.0528 35.8786 14.9831 35.9277 15.9712C35.9619 16.6592 35.4673 17.2515 34.8008 17.353L34.665 17.3667C34.6423 17.3679 34.6197 17.3677 34.5977 17.3677C33.8929 17.3676 33.3049 16.8146 33.2695 16.103C33.2531 15.7748 33.1158 15.4655 32.8828 15.2319C32.6502 14.999 32.342 14.8619 32.0146 14.8452C31.2806 14.808 30.7157 14.1827 30.7529 13.4487C30.7901 12.7148 31.4162 12.1496 32.1494 12.187Z" fill="#FAC800"/>
<path d="M32.1494 12.187C33.1374 12.2372 34.0671 12.6512 34.7666 13.3521C35.466 14.0528 35.8786 14.9831 35.9277 15.9712C35.9619 16.6592 35.4673 17.2515 34.8008 17.353L34.665 17.3667C34.6423 17.3679 34.6197 17.3677 34.5977 17.3677C33.8929 17.3676 33.3049 16.8146 33.2695 16.103C33.2531 15.7748 33.1158 15.4655 32.8828 15.2319C32.6502 14.999 32.342 14.8619 32.0146 14.8452C31.2806 14.808 30.7157 14.1827 30.7529 13.4487C30.7901 12.7148 31.4162 12.1496 32.1494 12.187Z" fill="black" fill-opacity="0.2"/>
<path d="M32.1494 12.187C33.1374 12.2372 34.0671 12.6512 34.7666 13.3521C35.466 14.0528 35.8786 14.9831 35.9277 15.9712C35.9619 16.6592 35.4673 17.2515 34.8008 17.353L34.665 17.3667C34.6423 17.3679 34.6197 17.3677 34.5977 17.3677C33.8929 17.3676 33.3049 16.8146 33.2695 16.103C33.2531 15.7748 33.1158 15.4655 32.8828 15.2319C32.6502 14.999 32.342 14.8619 32.0146 14.8452C31.2806 14.808 30.7157 14.1827 30.7529 13.4487C30.7901 12.7148 31.4162 12.1496 32.1494 12.187Z" stroke="#FAC800" stroke-width="0.387944"/>
<path d="M32.1494 12.187C33.1374 12.2372 34.0671 12.6512 34.7666 13.3521C35.466 14.0528 35.8786 14.9831 35.9277 15.9712C35.9619 16.6592 35.4673 17.2515 34.8008 17.353L34.665 17.3667C34.6423 17.3679 34.6197 17.3677 34.5977 17.3677C33.8929 17.3676 33.3049 16.8146 33.2695 16.103C33.2531 15.7748 33.1158 15.4655 32.8828 15.2319C32.6502 14.999 32.342 14.8619 32.0146 14.8452C31.2806 14.808 30.7157 14.1827 30.7529 13.4487C30.7901 12.7148 31.4162 12.1496 32.1494 12.187Z" stroke="black" stroke-opacity="0.2" stroke-width="0.387944"/>
<path d="M23.7227 14.2563C29.2072 14.2566 33.6648 18.77 33.665 24.313C33.665 24.5445 33.6541 24.7742 33.6387 25.0015C35.3679 25.4109 36.9396 26.3307 38.127 27.6479C39.265 28.9106 39.985 30.4678 40.2109 32.1187C41.175 32.3991 42.0521 32.9253 42.75 33.6577C43.731 34.6873 44.2724 36.0306 44.2725 37.439C44.2725 40.5064 41.7156 42.9937 38.583 42.9937H10.7949C7.66228 42.9936 5.10547 40.5064 5.10547 37.439C5.10556 34.3716 7.66234 31.8843 10.7949 31.8843H12.4238C12.6736 30.3558 13.3449 28.939 14.3809 27.7554C13.9926 26.6808 13.7793 25.5214 13.7793 24.313C13.7795 18.7699 18.2379 14.2563 23.7227 14.2563ZM33.1133 27.6108C31.761 31.5394 28.0652 34.3694 23.7227 34.3696C20.4766 34.3696 17.5896 32.7888 15.7744 30.3501C15.2581 31.2136 14.9784 32.193 14.9746 33.2202C14.9719 33.9532 14.3766 34.5464 13.6436 34.5464H10.7949C9.11772 34.5464 7.76767 35.8517 7.76758 37.439C7.76758 39.0263 9.11766 40.3325 10.7949 40.3325H38.583C40.2602 40.3325 41.6113 39.0263 41.6113 37.439C41.6112 35.9589 40.4035 34.6866 38.8486 34.5581C38.1593 34.501 37.629 33.9255 37.6279 33.2339C37.6262 31.8366 37.1016 30.4857 36.1504 29.4302C35.3463 28.5381 34.2854 27.9062 33.1133 27.6108ZM23.7227 16.9185C19.7105 16.9185 16.4406 20.2328 16.4404 24.313C16.4404 28.3933 19.7105 31.7085 23.7227 31.7085C27.7346 31.7082 31.0039 28.3932 31.0039 24.313C31.0037 20.233 27.7346 16.9187 23.7227 16.9185Z" fill="#FAC800"/>
<path d="M23.7227 14.2563C29.2072 14.2566 33.6648 18.77 33.665 24.313C33.665 24.5445 33.6541 24.7742 33.6387 25.0015C35.3679 25.4109 36.9396 26.3307 38.127 27.6479C39.265 28.9106 39.985 30.4678 40.2109 32.1187C41.175 32.3991 42.0521 32.9253 42.75 33.6577C43.731 34.6873 44.2724 36.0306 44.2725 37.439C44.2725 40.5064 41.7156 42.9937 38.583 42.9937H10.7949C7.66228 42.9936 5.10547 40.5064 5.10547 37.439C5.10556 34.3716 7.66234 31.8843 10.7949 31.8843H12.4238C12.6736 30.3558 13.3449 28.939 14.3809 27.7554C13.9926 26.6808 13.7793 25.5214 13.7793 24.313C13.7795 18.7699 18.2379 14.2563 23.7227 14.2563ZM33.1133 27.6108C31.761 31.5394 28.0652 34.3694 23.7227 34.3696C20.4766 34.3696 17.5896 32.7888 15.7744 30.3501C15.2581 31.2136 14.9784 32.193 14.9746 33.2202C14.9719 33.9532 14.3766 34.5464 13.6436 34.5464H10.7949C9.11772 34.5464 7.76767 35.8517 7.76758 37.439C7.76758 39.0263 9.11766 40.3325 10.7949 40.3325H38.583C40.2602 40.3325 41.6113 39.0263 41.6113 37.439C41.6112 35.9589 40.4035 34.6866 38.8486 34.5581C38.1593 34.501 37.629 33.9255 37.6279 33.2339C37.6262 31.8366 37.1016 30.4857 36.1504 29.4302C35.3463 28.5381 34.2854 27.9062 33.1133 27.6108ZM23.7227 16.9185C19.7105 16.9185 16.4406 20.2328 16.4404 24.313C16.4404 28.3933 19.7105 31.7085 23.7227 31.7085C27.7346 31.7082 31.0039 28.3932 31.0039 24.313C31.0037 20.233 27.7346 16.9187 23.7227 16.9185Z" fill="black" fill-opacity="0.2"/>
<path d="M23.7227 14.2563C29.2072 14.2566 33.6648 18.77 33.665 24.313C33.665 24.5445 33.6541 24.7742 33.6387 25.0015C35.3679 25.4109 36.9396 26.3307 38.127 27.6479C39.265 28.9106 39.985 30.4678 40.2109 32.1187C41.175 32.3991 42.0521 32.9253 42.75 33.6577C43.731 34.6873 44.2724 36.0306 44.2725 37.439C44.2725 40.5064 41.7156 42.9937 38.583 42.9937H10.7949C7.66228 42.9936 5.10547 40.5064 5.10547 37.439C5.10556 34.3716 7.66234 31.8843 10.7949 31.8843H12.4238C12.6736 30.3558 13.3449 28.939 14.3809 27.7554C13.9926 26.6808 13.7793 25.5214 13.7793 24.313C13.7795 18.7699 18.2379 14.2563 23.7227 14.2563ZM33.1133 27.6108C31.761 31.5394 28.0652 34.3694 23.7227 34.3696C20.4766 34.3696 17.5896 32.7888 15.7744 30.3501C15.2581 31.2136 14.9784 32.193 14.9746 33.2202C14.9719 33.9532 14.3766 34.5464 13.6436 34.5464H10.7949C9.11772 34.5464 7.76767 35.8517 7.76758 37.439C7.76758 39.0263 9.11766 40.3325 10.7949 40.3325H38.583C40.2602 40.3325 41.6113 39.0263 41.6113 37.439C41.6112 35.9589 40.4035 34.6866 38.8486 34.5581C38.1593 34.501 37.629 33.9255 37.6279 33.2339C37.6262 31.8366 37.1016 30.4857 36.1504 29.4302C35.3463 28.5381 34.2854 27.9062 33.1133 27.6108ZM23.7227 16.9185C19.7105 16.9185 16.4406 20.2328 16.4404 24.313C16.4404 28.3933 19.7105 31.7085 23.7227 31.7085C27.7346 31.7082 31.0039 28.3932 31.0039 24.313C31.0037 20.233 27.7346 16.9187 23.7227 16.9185Z" stroke="#FAC800" stroke-width="0.387944"/>
<path d="M23.7227 14.2563C29.2072 14.2566 33.6648 18.77 33.665 24.313C33.665 24.5445 33.6541 24.7742 33.6387 25.0015C35.3679 25.4109 36.9396 26.3307 38.127 27.6479C39.265 28.9106 39.985 30.4678 40.2109 32.1187C41.175 32.3991 42.0521 32.9253 42.75 33.6577C43.731 34.6873 44.2724 36.0306 44.2725 37.439C44.2725 40.5064 41.7156 42.9937 38.583 42.9937H10.7949C7.66228 42.9936 5.10547 40.5064 5.10547 37.439C5.10556 34.3716 7.66234 31.8843 10.7949 31.8843H12.4238C12.6736 30.3558 13.3449 28.939 14.3809 27.7554C13.9926 26.6808 13.7793 25.5214 13.7793 24.313C13.7795 18.7699 18.2379 14.2563 23.7227 14.2563ZM33.1133 27.6108C31.761 31.5394 28.0652 34.3694 23.7227 34.3696C20.4766 34.3696 17.5896 32.7888 15.7744 30.3501C15.2581 31.2136 14.9784 32.193 14.9746 33.2202C14.9719 33.9532 14.3766 34.5464 13.6436 34.5464H10.7949C9.11772 34.5464 7.76767 35.8517 7.76758 37.439C7.76758 39.0263 9.11766 40.3325 10.7949 40.3325H38.583C40.2602 40.3325 41.6113 39.0263 41.6113 37.439C41.6112 35.9589 40.4035 34.6866 38.8486 34.5581C38.1593 34.501 37.629 33.9255 37.6279 33.2339C37.6262 31.8366 37.1016 30.4857 36.1504 29.4302C35.3463 28.5381 34.2854 27.9062 33.1133 27.6108ZM23.7227 16.9185C19.7105 16.9185 16.4406 20.2328 16.4404 24.313C16.4404 28.3933 19.7105 31.7085 23.7227 31.7085C27.7346 31.7082 31.0039 28.3932 31.0039 24.313C31.0037 20.233 27.7346 16.9187 23.7227 16.9185Z" stroke="black" stroke-opacity="0.2" stroke-width="0.387944"/>
</svg>
